<?xml version="1.0" encoding="utf-8"?>
<!-- Generator: Adobe Illustrator 25.2.3, SVG Export Plug-In . SVG Version: 6.00 Build 0)  -->
<!DOCTYPE svg PUBLIC "-//W3C//DTD SVG 1.1//EN" "http://www.w3.org/Graphics/SVG/1.1/DTD/svg11.dtd" [
	<!ENTITY ns_extend "http://ns.adobe.com/Extensibility/1.0/">
	<!ENTITY ns_ai "http://ns.adobe.com/AdobeIllustrator/10.0/">
	<!ENTITY ns_graphs "http://ns.adobe.com/Graphs/1.0/">
	<!ENTITY ns_vars "http://ns.adobe.com/Variables/1.0/">
	<!ENTITY ns_imrep "http://ns.adobe.com/ImageReplacement/1.0/">
	<!ENTITY ns_sfw "http://ns.adobe.com/SaveForWeb/1.0/">
	<!ENTITY ns_custom "http://ns.adobe.com/GenericCustomNamespace/1.0/">
	<!ENTITY ns_adobe_xpath "http://ns.adobe.com/XPath/1.0/">
]>
<svg version="1.1" id="Layer_1" xmlns:x="&ns_extend;" xmlns:i="&ns_ai;" xmlns:graph="&ns_graphs;"
	 xmlns="http://www.w3.org/2000/svg" xmlns:xlink="http://www.w3.org/1999/xlink" x="0px" y="0px" viewBox="0 0 512 512"
	 style="enable-background:new 0 0 512 512;" xml:space="preserve">
<style type="text/css">
	.st0{fill:#FFFFFF;}
</style>
<metadata>
	<sfw  xmlns="&ns_sfw;">
		<slices></slices>
		<sliceSourceBounds  bottomLeftOrigin="true" height="268.4" width="492" x="10" y="121.8"></sliceSourceBounds>
	</sfw>
</metadata>
<path class="st0" d="M482.1,129.8c-34.8-12.6-73.3-10.3-106.3,6.5l-61.2,30.1l-112.5-41.3c-1.7-0.6-3.6-0.4-5.2,0.5L166,144.4
	c-2.8,1.7-3.7,5.4-2,8.2c0.5,0.8,1.1,1.4,1.9,1.9l74.8,48.2l-87.2,43l-50.5-34.9c-19.1-13.3-43.7-16.1-65.3-7.5l-23.9,9.4
	c-3.1,1.2-4.6,4.7-3.4,7.8c0.4,1,1,1.8,1.8,2.4l93.2,75.6c12.5,10.3,28.1,15.9,44.3,16c0.7,0,1.3,0,2,0c4.6,0,9.1-0.9,13.3-2.5
	l81.5-31.4l-38.3,101.2c-1.2,3.1,0.4,6.6,3.5,7.7c0.7,0.3,1.4,0.4,2.1,0.4h49.9c2.1,0,4.1-1.1,5.2-3l87.2-150.7l126.7-50.2
	c15.5-6.2,23.2-23.7,17-39.3C496.7,139.1,490.2,132.8,482.1,129.8L482.1,129.8z M180.4,149.7l20.3-12.3l99.1,36.4l-46.5,22.9
	L180.4,149.7z M260.3,378.2h-37.8l47-124.2l81.3-32.1L260.3,378.2z M478.5,175.3l-112.6,44.6l3.9-6.8c1.7-2.9,0.7-6.5-2.2-8.2
	c-1.6-0.9-3.5-1.1-5.2-0.4l-99.8,39.4c-1.6,0.6-2.8,1.9-3.4,3.5l-7,18.5l-91.5,35.2c-3,1.1-6.1,1.7-9.3,1.6
	c-14,0.3-27.6-4.4-38.4-13.3l-85.2-69.2l14.3-5.7c17.9-7.1,38.2-4.8,54.1,6.2l53.4,36.9c1.8,1.2,4.1,1.4,6.1,0.4L381.2,147
	c30.1-15.3,65.1-17.4,96.8-5.9c9.5,3.5,14.4,13.9,10.9,23.4C487.1,169.4,483.3,173.3,478.5,175.3L478.5,175.3z"/>
</svg>
