<?xml version="1.0" encoding="utf-8"?>
<!-- Generator: Adobe Illustrator 25.2.3, SVG Export Plug-In . SVG Version: 6.00 Build 0)  -->
<!DOCTYPE svg PUBLIC "-//W3C//DTD SVG 1.1//EN" "http://www.w3.org/Graphics/SVG/1.1/DTD/svg11.dtd" [
	<!ENTITY ns_extend "http://ns.adobe.com/Extensibility/1.0/">
	<!ENTITY ns_ai "http://ns.adobe.com/AdobeIllustrator/10.0/">
	<!ENTITY ns_graphs "http://ns.adobe.com/Graphs/1.0/">
	<!ENTITY ns_vars "http://ns.adobe.com/Variables/1.0/">
	<!ENTITY ns_imrep "http://ns.adobe.com/ImageReplacement/1.0/">
	<!ENTITY ns_sfw "http://ns.adobe.com/SaveForWeb/1.0/">
	<!ENTITY ns_custom "http://ns.adobe.com/GenericCustomNamespace/1.0/">
	<!ENTITY ns_adobe_xpath "http://ns.adobe.com/XPath/1.0/">
]>
<svg version="1.1" id="limusine" xmlns:x="&ns_extend;" xmlns:i="&ns_ai;" xmlns:graph="&ns_graphs;"
	 xmlns="http://www.w3.org/2000/svg" xmlns:xlink="http://www.w3.org/1999/xlink" x="0px" y="0px" viewBox="0 0 512 512"
	 style="enable-background:new 0 0 512 512;" xml:space="preserve">
<style type="text/css">
	.st0{fill:#FFFFFF;}
</style>
<metadata>
	<sfw  xmlns="&ns_sfw;">
		<slices></slices>
		<sliceSourceBounds  bottomLeftOrigin="true" height="293.4" width="395.6" x="58.2" y="61.6"></sliceSourceBounds>
	</sfw>
</metadata>
<g>
	<path class="st0" d="M433.1,225.3H401l-11.6-46.7c-3.1-12.7-15.5-21.6-29.9-21.6H152.3c-14.5,0-26.8,8.9-29.9,21.6l-11.5,46.7h-30
		c-12.5,0-22.7,10.2-22.7,22.7v18.2c0,3.8,3.1,6.8,6.8,6.8h21.3c-6.5,10.5-14.7,25.5-14.7,34.1v90.1c0,5.8,2.7,11,6.8,14.5v20.7
		c0,9.9,8.1,18,18,18h39.1c9.9,0,18-8.1,18-18v-16.1h34.1c0,3.8,3.1,6.8,6.8,6.8h122.9c3.8,0,6.8-3.1,6.8-6.8h34.1v16.1
		c0,9.9,8.1,18,18,18h39.1c9.9,0,18-8.1,18-18v-20.7c4.1-3.5,6.8-8.7,6.8-14.5v-90.1c0-8.6-8.2-23.7-14.7-34.1H447
		c3.8,0,6.8-3.1,6.8-6.8V246C453.8,234.6,444.5,225.3,433.1,225.3L433.1,225.3z M135.6,181.9c1.6-6.5,8.6-11.2,16.7-11.2h207.2
		c8.1,0,15.1,4.7,16.7,11.2l23.2,93.1c1,3.9,0.1,8-2.5,11.4c-3.5,4.5-9.4,7.2-15.8,7.2H130.8c-6.4,0-12.3-2.7-15.8-7.2
		c-2.6-3.4-3.5-7.5-2.5-11.4L135.6,181.9z M180.8,307.2h6.8v54.6h-6.8V307.2z M201.3,307.2h6.8v54.6h-6.8V307.2z M221.7,307.2h6.8
		v54.6h-6.8V307.2z M242.2,307.2h6.8v54.6h-6.8V307.2z M262.7,307.2h6.8v54.6h-6.8V307.2z M283.2,307.2h6.8v54.6h-6.8V307.2z
		 M303.7,307.2h6.8v54.6h-6.8V307.2z M324.1,307.2h6.8v54.6h-6.8V307.2z M71.8,259.4V248c0-5,4.1-9.1,9.1-9.1h26.5l-1.6,6.3l-3.8,15
		c-1-0.5-2.1-0.8-3.2-0.8L71.8,259.4L71.8,259.4z M85.2,327.7h54.6v13.7H85.2V327.7z M139.8,432.5c0,2.4-2,4.4-4.4,4.4h-39
		c-2.4,0-4.4-2-4.4-4.4v-16.1h47.8V432.5L139.8,432.5z M310.5,409.6H201.3v-13.7h109.2V409.6z M415.3,436.9h-39.1
		c-2.4,0-4.4-2-4.4-4.4v-16.1h47.8v16.1C419.7,434.9,417.7,436.9,415.3,436.9z M426.5,341.3h-54.6v-13.7h54.6V341.3z M426.5,307.2
		v6.8h-61.4c-3.8,0-6.8,3.1-6.8,6.8v27.3c0,3.8,3.1,6.8,6.8,6.8h61.4v42.3c0,3-2.4,5.5-5.5,5.5h-96.9V389c0-3.8-3.1-6.8-6.8-6.8
		H194.4c-3.8,0-6.8,3.1-6.8,6.8v13.7H90.7c-3,0-5.5-2.4-5.5-5.5V355h61.4c3.8,0,6.8-3.1,6.8-6.8v-27.3c0-3.8-3.1-6.8-6.8-6.8H85.2
		v-6.8c0-4.4,6.2-16.5,13.3-27.9c0.2,5.5,2.1,10.9,5.6,15.5c6.1,7.8,16,12.5,26.6,12.5H167v61.4c0,3.8,3.1,6.8,6.8,6.8h163.8
		c3.8,0,6.8-3.1,6.8-6.8v-61.4H381c10.6,0,20.6-4.7,26.6-12.5c3.6-4.6,5.4-10,5.6-15.5C420.4,290.7,426.5,302.7,426.5,307.2
		L426.5,307.2z M440.2,259.4h-27.3c-1.1,0-2.2,0.3-3.1,0.8l-5.3-21.3h28.7c3.9,0,7.1,3.2,7.1,7.1v13.4H440.2z"/>
	<path class="st0" d="M133,266.2h245.8c2.1,0,4.1-1,5.4-2.7s1.7-3.9,1.2-5.9l-20.5-75.1c-0.8-3-3.5-5-6.6-5H153.5
		c-3.1,0-5.8,2.1-6.6,5l-20.5,75.1c-0.6,2.1-0.1,4.2,1.2,5.9C128.9,265.2,130.9,266.2,133,266.2L133,266.2z M284.1,252.6
		c3.1-11.7,13.6-20.5,26.3-20.5s23.3,8.7,26.3,20.5H284.1z M158.7,191.1h194.4l16.8,61.4h-19c-3.3-19.3-20.1-34.1-40.3-34.1
		s-37.1,14.8-40.3,34.1H141.9L158.7,191.1z"/>
</g>
</svg>
